<svg xmlns="http://www.w3.org/2000/svg" width="23.571" height="23.571" viewBox="0 0 23.571 23.571"><g transform="translate(-3 -3)"><path d="M22.785,30.857h-16A3.79,3.79,0,0,1,3,27.071V22.5a1.5,1.5,0,0,1,3,0v4.571a.787.787,0,0,0,.786.786h16a.787.787,0,0,0,.786-.786V22.5a1.5,1.5,0,0,1,3,0v4.571A3.79,3.79,0,0,1,22.785,30.857Z" transform="translate(0 -4.286)" fill="#fff"/><path d="M16.214,22.214a1.5,1.5,0,0,1-1.061-.439L9.439,16.061a1.5,1.5,0,0,1,2.121-2.121l4.653,4.653,4.653-4.653a1.5,1.5,0,0,1,2.121,2.121l-5.714,5.714A1.5,1.5,0,0,1,16.214,22.214Z" transform="translate(-1.429 -2.5)" fill="#fff"/><path d="M18,19.714a1.5,1.5,0,0,1-1.5-1.5V4.5a1.5,1.5,0,1,1,3,0V18.214A1.5,1.5,0,0,1,18,19.714Z" transform="translate(-3.215)" fill="#fff"/></g></svg>