<svg xmlns="http://www.w3.org/2000/svg" xmlns:xlink="http://www.w3.org/1999/xlink" width="144" height="144" viewBox="0 0 144 144"><defs><linearGradient id="a" x1="0.5" x2="0.5" y2="1" gradientUnits="objectBoundingBox"><stop offset="0" stop-color="#f7b500"/><stop offset="1" stop-color="#f78d00"/></linearGradient></defs><g transform="translate(-531 -3251)"><rect width="144" height="144" rx="20" transform="translate(531 3251)" fill="#fff"/><path d="M11.317,64.71a15.183,15.183,0,0,0,.909,3.437A9.188,9.188,0,0,0,14.259,71.3c2.868,2.846,6.594,2.838,10.674,2.838h1.937c1.678-2.417,5.618-4.11,10.2-4.11,6.113,0,11.088,3.008,11.088,6.727S43.2,83.478,37.07,83.478c-4.487,0-8.353-1.626-10.09-3.962H24.933c-5.233,0-10.016,0-14.451-4.391a14.621,14.621,0,0,1-3.238-4.96A21.141,21.141,0,0,1,5.913,64.71,6.061,6.061,0,0,1,0,58.664V36.858a6.061,6.061,0,0,1,6.047-6.047h.429c1.094-11.2,8.131-19.958,17.644-25.2A45.719,45.719,0,0,1,42.407.143,42.917,42.917,0,0,1,61.589,2.855c10.681,4.221,19.633,13.187,23.1,27.956h.1a6.061,6.061,0,0,1,6.047,6.047V58.664a6.061,6.061,0,0,1-6.047,6.047H78.738V31.344c-3.1-12.13-10.519-19.522-19.322-22.981A36.959,36.959,0,0,0,42.873,6.041a39.665,39.665,0,0,0-15.885,4.723c-8.235,4.568-14.244,12.145-14.732,21.791a2.957,2.957,0,0,1-.163.85v31.3Z" transform="translate(557.584 3281.271)" fill="url(#a)"/></g></svg>