<svg xmlns="http://www.w3.org/2000/svg" xmlns:xlink="http://www.w3.org/1999/xlink" width="144" height="144" viewBox="0 0 144 144"><defs><linearGradient id="a" x1="0.5" x2="0.5" y2="1" gradientUnits="objectBoundingBox"><stop offset="0" stop-color="#f7b500"/><stop offset="1" stop-color="#f78d00"/></linearGradient></defs><g transform="translate(-531 -3251)"><rect width="144" height="144" rx="20" transform="translate(531 3251)" fill="#fff"/><g transform="translate(567.722 3289.046)"><path d="M7.195,11.118v49.6H69.471v7.195H3.6a3.6,3.6,0,0,1-3.6-3.6v-53.2ZM23.346,10.2l-.6,4.674a2.63,2.63,0,1,1-5.219-.66l1.522-11.84a2.629,2.629,0,0,1,3.566-2.2l11.4,4.393a2.628,2.628,0,0,1-1.895,4.9l-3.893-1.5A61.95,61.95,0,0,0,43.127,22.355a51.685,51.685,0,0,0,24.983,9.21,2.634,2.634,0,0,1-.373,5.254A56.824,56.824,0,0,1,40.158,26.713,67.313,67.313,0,0,1,23.346,10.2ZM66.318,49.181v6.454H58.159V49.181ZM51.734,42.389V55.635H43.581V42.389ZM37.155,37.715v17.92H29V37.715Zm-14.579-7.12v25.04H14.418V30.595Z" transform="translate(0 0)" fill="url(#a)"/></g></g></svg>