<svg xmlns="http://www.w3.org/2000/svg" xmlns:xlink="http://www.w3.org/1999/xlink" width="144" height="144" viewBox="0 0 144 144"><defs><linearGradient id="a" x1="0.5" x2="0.5" y2="1" gradientUnits="objectBoundingBox"><stop offset="0" stop-color="#f7b500"/><stop offset="1" stop-color="#f78d00"/></linearGradient></defs><g transform="translate(-531 -3251)"><rect width="144" height="144" rx="20" transform="translate(531 3251)" fill="#fff"/><g transform="translate(560.197 3281.25)"><path d="M41.749,0h.006a41.738,41.738,0,0,1,11.836,1.7q.9.265,1.815.582a41.548,41.548,0,0,1,8.7,4.2.409.409,0,0,1,.127.563.534.534,0,0,1-.042.054l-2.987,3.83a.407.407,0,0,1-.549.087l-.007,0q-1.139-.7-2.349-1.33T55.828,8.526h0A35.959,35.959,0,0,0,41.749,5.676h0A35.959,35.959,0,0,0,27.705,8.511q-1.058.447-2.073.955a36.171,36.171,0,0,0-9.391,6.776l0,0-.019.017A36,36,0,0,0,5.676,41.749v0h0A35.959,35.959,0,0,0,8.511,55.792q.447,1.059.955,2.073a36.169,36.169,0,0,0,6.777,9.391l0,0,.015.016A36.009,36.009,0,0,0,41.749,77.821h0v0a35.966,35.966,0,0,0,14.039-2.836q1.059-.447,2.073-.955a36.159,36.159,0,0,0,9.391-6.776l0,0,.021-.02a36.159,36.159,0,0,0,4.842-6.014,35.9,35.9,0,0,0,5.7-19.468v-.007h0a36.119,36.119,0,0,0-1.068-8.734q-.173-.7-.364-1.356a35.932,35.932,0,0,0-2.657-6.6.406.406,0,0,1,.12-.516l3.86-3.052a.4.4,0,0,1,.57.067.309.309,0,0,1,.032.049h0l0,.006,0,.008h0q.691,1.252,1.3,2.561t1.125,2.657A41.646,41.646,0,0,1,83.5,41.75v0h0A41.621,41.621,0,0,1,80.215,58q-.513,1.215-1.106,2.4A41.872,41.872,0,0,1,71.27,71.271l0,0-.015.014A41.678,41.678,0,0,1,41.749,83.5h0A41.621,41.621,0,0,1,25.5,80.215q-1.215-.513-2.4-1.107a41.881,41.881,0,0,1-10.871-7.838l0,0-.02-.02A41.684,41.684,0,0,1,0,41.749v0H0A41.635,41.635,0,0,1,3.283,25.5Q3.8,24.282,4.39,23.1a41.877,41.877,0,0,1,7.838-10.87l0,0,.018-.016A41.691,41.691,0,0,1,41.749,0ZM64.837,11.355,76.52.192,77.3,7.721l8.309,1.039L73.1,20.882l-6.088.523L42.717,44,40.479,42.07,63.488,18.035l1.349-6.68ZM41.749,28.534h.01a13.265,13.265,0,0,1,2.287.2c.086.015.207.038.36.07h0a13.119,13.119,0,0,1,1.8.5.405.405,0,0,1,.183.633h0l-3.261,4.183a.406.406,0,0,1-.375.152h0l-.019,0h0l-.145-.017-.013,0-.125-.013h-.01c-.217-.019-.448-.029-.692-.029h0v0a7.519,7.519,0,0,0-2.932.594c-.149.063-.294.13-.433.2a7.554,7.554,0,0,0-1.961,1.416l0,0-.019.017a7.665,7.665,0,0,0-1,1.244,7.5,7.5,0,0,0-1.189,4.066v0h0a7.511,7.511,0,0,0,.594,2.932c.063.15.13.295.2.433a7.544,7.544,0,0,0,1.416,1.96l0,0,.017.017a7.448,7.448,0,0,0,.585.523,7.491,7.491,0,0,0,4.726,1.664h0a7.5,7.5,0,0,0,2.932-.594c.15-.063.294-.13.433-.2a7.547,7.547,0,0,0,1.96-1.417l0,0,.014-.013c.1-.1.2-.206.292-.309s.187-.217.284-.341A7.515,7.515,0,0,0,48.8,44.418a.4.4,0,0,1,.158-.2l5.27-4.167a.405.405,0,0,1,.655.274h0l0,.031v.022l.017.174v0h0l.015.189v0c.024.334.038.667.038,1v0h0a13.183,13.183,0,0,1-1.039,5.141c-.107.254-.225.508-.35.759a13.257,13.257,0,0,1-2.48,3.44l0,0-.022.019a13.077,13.077,0,0,1-2.188,1.76,13.156,13.156,0,0,1-7.13,2.088h0v0a13.177,13.177,0,0,1-5.14-1.039c-.254-.107-.509-.225-.759-.35a13.271,13.271,0,0,1-3.44-2.479l0,0-.023-.025a13.26,13.26,0,0,1-1.757-2.186,13.154,13.154,0,0,1-2.088-7.129v0h0a13.189,13.189,0,0,1,1.039-5.139q.162-.381.35-.759A13.257,13.257,0,0,1,32.4,32.407h0l0,0a13.418,13.418,0,0,1,1.058-.948,13.179,13.179,0,0,1,8.285-2.92Zm.692,5.706a.409.409,0,0,1-.357-.431l.357.431Zm-.692-20.091h.007a27.641,27.641,0,0,1,7.133.932q.555.148,1.1.32a27.39,27.39,0,0,1,5.337,2.315.407.407,0,0,1,.153.555.474.474,0,0,1-.033.049l0,0L52.42,22.206a.409.409,0,0,1-.525.1l-.01,0c-.41-.214-.837-.421-1.28-.616s-.9-.378-1.345-.543a21.866,21.866,0,0,0-7.511-1.32h0a21.859,21.859,0,0,0-8.532,1.724q-.621.263-1.26.582l-.032.015a22.014,22.014,0,0,0-5.675,4.1l0,0-.016.016a22.073,22.073,0,0,0-2.938,3.653,21.827,21.827,0,0,0-3.462,11.832v0h0a21.856,21.856,0,0,0,1.724,8.532q.272.644.58,1.26a21.985,21.985,0,0,0,4.118,5.706l0,0A21.8,21.8,0,0,0,28,58.829a22.082,22.082,0,0,0,1.916,1.381A21.823,21.823,0,0,0,41.75,63.672h0a21.862,21.862,0,0,0,8.533-1.724q.644-.273,1.26-.581a21.969,21.969,0,0,0,5.706-4.118l0,0a21.882,21.882,0,0,0,6.42-15.5h0v-.01h0a22.011,22.011,0,0,0-.359-3.965c-.036-.192-.077-.4-.125-.626a21.747,21.747,0,0,0-.908-3.1.407.407,0,0,1,.151-.479l3.945-3.12a.4.4,0,0,1,.57.067A.419.419,0,0,1,67,30.6h0l0,.007,0,.006h0q.308.7.592,1.453t.511,1.493a27.589,27.589,0,0,1,1.239,8.195v0h0a27.5,27.5,0,0,1-2.169,10.739q-.339.8-.732,1.586a27.648,27.648,0,0,1-5.181,7.185l0,0-.015.015a27.936,27.936,0,0,1-2.192,1.967,27.536,27.536,0,0,1-17.306,6.1h0A27.522,27.522,0,0,1,31,67.178q-.8-.34-1.586-.732a27.692,27.692,0,0,1-7.186-5.181l0,0-.02-.021a27.554,27.554,0,0,1-8.062-19.492v0h0A27.523,27.523,0,0,1,16.32,31q.339-.8.732-1.586a27.681,27.681,0,0,1,5.18-7.184h0l0,0,.018-.017a27.554,27.554,0,0,1,19.5-8.064Z" transform="translate(0 0)" fill="url(#a)"/></g></g></svg>