<svg xmlns="http://www.w3.org/2000/svg" xmlns:xlink="http://www.w3.org/1999/xlink" width="144" height="144" viewBox="0 0 144 144"><defs><linearGradient id="a" x1="0.5" x2="0.5" y2="1" gradientUnits="objectBoundingBox"><stop offset="0" stop-color="#f7b500"/><stop offset="1" stop-color="#f78d00"/></linearGradient></defs><g transform="translate(-531 -3251)"><rect width="144" height="144" rx="20" transform="translate(531 3251)" fill="#fff"/><path d="M9.73,14.694c9.657,3.23,25.483,3.23,35.141,0,3.914-1.309,6.336-2.893,6.336-4.439s-2.423-3.13-6.336-4.439c-9.73-3.232-25.409-3.227-35.141,0-8.3,2.774-8.53,6.028,0,8.877ZM55.648,43.416l1.922,4.5,4.873.437a.727.727,0,0,1,.588,1.056l-.017.029a.705.705,0,0,1-.156.193l-3.685,3.218,1.1,4.8a.734.734,0,0,1-.554.849.787.787,0,0,1-.289.007.732.732,0,0,1-.274-.107l-4.176-2.5L50.742,58.43a.732.732,0,0,1-.52.063.723.723,0,0,1-.429-.3l-.03-.05a.725.725,0,0,1-.084-.238.747.747,0,0,1,.008-.277l1.091-4.776c-1.213-1.06-2.558-2.153-3.718-3.248a.728.728,0,0,1-.04-1l.032-.034a.727.727,0,0,1,.2-.143.749.749,0,0,1,.277-.072l4.851-.435,1.922-4.5a.731.731,0,0,1,.956-.386.726.726,0,0,1,.233.156l.032.036a.709.709,0,0,1,.123.2ZM60.858,26.6a.836.836,0,0,0-.546-.215.415.415,0,0,0-.13.014H41.205A1.815,1.815,0,0,0,39.4,28.2V65.215a1.813,1.813,0,0,0,1.809,1.811H68.746a1.814,1.814,0,0,0,1.811-1.811V36.94a1.044,1.044,0,0,0-.245-.819l-9.353-9.469a.265.265,0,0,0-.072-.058h-.029Zm-2.544,2.168v6.525a3.611,3.611,0,0,0,3.449,3.4h6.442V64.471a.184.184,0,0,1-.187.186H41.937a.193.193,0,0,1-.186-.186V28.95a.188.188,0,0,1,.186-.187H58.314Zm2.469,6.673V29.5l6.681,6.768H61.617a.841.841,0,0,1-.834-.832ZM3.433,27.022c.309,1.443,2.66,2.9,6.3,4.114,7.283,2.436,16.792,2.828,24.5,2.086v3.416c-8.1.754-17.9.278-25.559-2.281a21.4,21.4,0,0,1-5.227-2.467V42.072c.307,1.443,2.66,2.9,6.3,4.115C17.067,48.626,26.5,49,34.231,48.279v3.4c-8.122.735-17.876.285-25.564-2.292A21.359,21.359,0,0,1,3.44,46.926v10.18c.307,1.444,2.66,2.9,6.3,4.115,7.291,2.43,16.781,2.829,24.49,2.086V65.95a5.247,5.247,0,0,0,.037.763c-8.11.75-17.924.284-25.6-2.288C6.137,63.582.022,60.8.022,57.479V56.4C.007,41.236,0,25.42,0,10.283c0-3.2,3.309-5.888,8.65-7.677,10.417-3.473,26.887-3.478,37.3.006,4.816,1.611,8.049,4,8.584,6.806a1.641,1.641,0,0,1,.1.558v11.49H51.224V15.408A21.528,21.528,0,0,1,45.951,17.9c-10.367,3.5-26.926,3.466-37.3,0a21.383,21.383,0,0,1-5.227-2.461V27.022h.011Z" transform="translate(567.722 3289.925)" fill-rule="evenodd" fill="url(#a)"/></g></svg>