<svg xmlns="http://www.w3.org/2000/svg" xmlns:xlink="http://www.w3.org/1999/xlink" width="30" height="36" viewBox="0 0 30 36"><defs><linearGradient id="a" x1="0.5" x2="0.5" y2="1" gradientUnits="objectBoundingBox"><stop offset="0" stop-color="#f7b500"/><stop offset="1" stop-color="#f78d00"/></linearGradient></defs><g transform="translate(-3)"><path d="M18,0A15,15,0,0,1,33,15a17.142,17.142,0,0,1-2.293,8.195,31.741,31.741,0,0,1-4.869,6.524,45.515,45.515,0,0,1-7.007,6.029,1.5,1.5,0,0,1-1.664,0,45.515,45.515,0,0,1-7.007-6.029,31.741,31.741,0,0,1-4.869-6.524A17.142,17.142,0,0,1,3,15,15,15,0,0,1,18,0Zm0,32.656C20.845,30.545,30,23.12,30,15A12,12,0,0,0,6,15C6,23.12,15.155,30.545,18,32.656Z" fill="url(#a)"/><path d="M18,9a6,6,0,1,1-6,6A6.007,6.007,0,0,1,18,9Zm0,9a3,3,0,1,0-3-3A3,3,0,0,0,18,18Z" fill="url(#a)"/></g></svg>