<svg xmlns="http://www.w3.org/2000/svg" xmlns:xlink="http://www.w3.org/1999/xlink" width="33" height="27" viewBox="0 0 33 27"><defs><linearGradient id="a" x1="0.5" x2="0.5" y2="1" gradientUnits="objectBoundingBox"><stop offset="0" stop-color="#f7b500"/><stop offset="1" stop-color="#f78d00"/></linearGradient></defs><g transform="translate(-1.5 -4.5)"><path d="M6,4.5H30A4.505,4.505,0,0,1,34.5,9V27A4.505,4.505,0,0,1,30,31.5H6A4.505,4.505,0,0,1,1.5,27V9A4.505,4.505,0,0,1,6,4.5Zm24,24A1.5,1.5,0,0,0,31.5,27V9A1.5,1.5,0,0,0,30,7.5H6A1.5,1.5,0,0,0,4.5,9V27A1.5,1.5,0,0,0,6,28.5Z" fill="url(#a)"/><path d="M18,21a1.5,1.5,0,0,1-.86-.271l-15-10.5A1.5,1.5,0,1,1,3.86,7.771L18,17.669l14.14-9.9a1.5,1.5,0,1,1,1.72,2.458l-15,10.5A1.5,1.5,0,0,1,18,21Z" fill="url(#a)"/></g></svg>