<svg xmlns="http://www.w3.org/2000/svg" xmlns:xlink="http://www.w3.org/1999/xlink" width="32.833" height="32.892" viewBox="0 0 32.833 32.892"><defs><linearGradient id="a" x1="0.5" x2="0.5" y2="1" gradientUnits="objectBoundingBox"><stop offset="0" stop-color="#f7b500"/><stop offset="1" stop-color="#f78d00"/></linearGradient></defs><path d="M30,34.392c-.135,0-.271-.006-.405-.018l-.027,0a31.339,31.339,0,0,1-13.593-4.834,30.952,30.952,0,0,1-9.452-9.452A31.334,31.334,0,0,1,1.688,6.428l0-.023A4.5,4.5,0,0,1,6.164,1.5h4.531A4.5,4.5,0,0,1,15.15,5.37l0,.014a17.786,17.786,0,0,0,.968,3.887,4.511,4.511,0,0,1-1.014,4.744l-.006.006L14.025,15.1A22.517,22.517,0,0,0,20.9,21.975L21.979,20.9l.006-.006a4.5,4.5,0,0,1,4.748-1.013,17.778,17.778,0,0,0,3.883.967l.013,0A4.5,4.5,0,0,1,34.5,25.4v4.48A4.5,4.5,0,0,1,30,34.392Zm-.124-3.005c.041,0,.083.005.124.005a1.5,1.5,0,0,0,1.5-1.506s0,0,0-.006v-4.5q0-.019,0-.037a1.5,1.5,0,0,0-1.285-1.522,20.79,20.79,0,0,1-4.535-1.131,1.5,1.5,0,0,0-1.583.333l-1.9,1.9a1.5,1.5,0,0,1-1.8.243,25.512,25.512,0,0,1-9.563-9.562,1.5,1.5,0,0,1,.243-1.8l1.9-1.9a1.5,1.5,0,0,0,.335-1.58,20.8,20.8,0,0,1-1.132-4.538A1.507,1.507,0,0,0,10.695,4.5H6.165A1.5,1.5,0,0,0,4.673,6.125,28.32,28.32,0,0,0,9.044,18.459l.007.011a27.931,27.931,0,0,0,8.538,8.538l.012.007A28.324,28.324,0,0,0,29.876,31.387Z" transform="translate(-1.668 -1.5)" fill="url(#a)"/></svg>